<svg width="208.49375px" height="411.2px" xmlns="http://www.w3.org/2000/svg" viewBox="145.753125 -130.6 208.49375 411.2" style="background: rgba(89, 104, 134, 0);" preserveAspectRatio="xMidYMid"><defs><filter id="editing-hover" x="-100%" y="-100%" width="300%" height="300%"><feFlood flood-color="#34495e" result="flood"></feFlood><feComposite operator="in" in2="SourceAlpha" in="flood" result="shadow"></feComposite><feOffset dx="-0.6" dy="0.8" in="SourceGraphic" result="offset-1"></feOffset><feOffset dx="0.6" dy="-0.8" in="shadow" result="offset-2"></feOffset><feMerge><feMergeNode in="offset-2"></feMergeNode><feMergeNode in="offset-1"></feMergeNode></feMerge></filter></defs><g filter="url(#editing-hover)"><g transform="translate(182.0000057220459, 133)"><path d="M56-23.40L56.20-22.60L56.20-22.60Q59-22.80 63.60-23.10L63.60-23.10L63.60-23.10Q68.20-23.40 73-23.60L73-23.60L73-23.60Q77.80-23.80 82.10-23.90L82.10-23.90L82.10-23.90Q86.40-24 88.80-24L88.80-24L97.60-24L97.60-45.40L97.60-45.40Q94.20-42 89.20-38.80L89.20-38.80L89.20-38.80Q84.20-35.60 78.50-32.80L78.50-32.80L78.50-32.80Q72.80-30 66.90-27.60L66.90-27.60L66.90-27.60Q61-25.20 56-23.40L56-23.40ZM108.20 0L25.20 0L25.20 0Q16.80 0 12.70-5.40L12.70-5.40L12.70-5.40Q8.60-10.80 8.60-18L8.60-18L8.60-18Q8.60-21.80 9.40-24.10L9.40-24.10L9.40-24.10Q10.20-26.40 11.40-29.20L11.40-29.20L35.80-38L35.80-38Q57.60-45.80 68.80-53.90L68.80-53.90L68.80-53.90Q80-62 80-72.20L80-72.20L80-72.20Q80-80.60 75-85.20L75-85.20L75-85.20Q70-89.80 62.40-89.80L62.40-89.80L62.40-89.80Q53.80-89.80 48-83.50L48-83.50L48-83.50Q42.20-77.20 42.20-63.80L42.20-63.80L42.20-63.80Q42.20-59 42.30-55.70L42.30-55.70L42.30-55.70Q42.40-52.40 42.80-50L42.80-50L42.80-50Q40.60-48 36.70-46.60L36.70-46.60L36.70-46.60Q32.80-45.20 28.40-45.20L28.40-45.20L28.40-45.20Q19.40-45.20 14.40-51.30L14.40-51.30L14.40-51.30Q9.40-57.40 9.40-67L9.40-67L9.40-67Q9.40-78.20 13.10-87.30L13.10-87.30L13.10-87.30Q16.80-96.40 23.70-102.80L23.70-102.80L23.70-102.80Q30.60-109.20 40.50-112.60L40.50-112.60L40.50-112.60Q50.40-116 62.80-116L62.80-116L62.80-116Q73.60-116 82.60-113.30L82.60-113.30L82.60-113.30Q91.60-110.60 98.30-105.50L98.30-105.50L98.30-105.50Q105-100.40 109-93.30L109-93.30L109-93.30Q113-86.20 114-77.20L114-77.20L114-77.20Q121.60-77.20 124.50-73.80L124.50-73.80L124.50-73.80Q127.40-70.40 127.40-65.40L127.40-65.40L127.40-19.20L127.40-19.20Q127.40-10.20 122.30-5.10L122.30-5.10L122.30-5.10Q117.20 0 108.20 0L108.20 0Z" fill="#41b883"></path></g></g><style>text {
  font-size: 64px;
  font-family: Arial Black;
  dominant-baseline: central;
  text-anchor: middle;
}</style></svg>
