<svg width="26.75" height="28.5" viewBox="0 0 26.75 28.5" xmlns="http://www.w3.org/2000/svg"><g id="svgGroup" stroke-linecap="round" fill-rule="evenodd" font-size="9pt" stroke="#41b883" stroke-width="1mm" fill="#41b883" style="stroke:#41b883;stroke-width:1mm;fill:#41b883"><path d="M 22.55 10.45 L 24 10.45 A 5.265 5.265 0 0 1 24.735 10.498 Q 25.666 10.63 26.125 11.125 A 2.266 2.266 0 0 1 26.662 12.155 Q 26.745 12.496 26.75 12.897 A 4.173 4.173 0 0 1 26.75 12.95 L 26.75 25.2 A 4.289 4.289 0 0 1 26.632 26.236 A 3.003 3.003 0 0 1 25.9 27.6 A 2.672 2.672 0 0 1 24.757 28.302 Q 24.147 28.5 23.35 28.5 L 3 28.5 A 3.841 3.841 0 0 1 2.102 28.401 A 2.504 2.504 0 0 1 0.775 27.625 A 3.018 3.018 0 0 1 0.076 26.174 A 4.281 4.281 0 0 1 0 25.35 Q 0 24.85 0.125 24.35 A 9.886 9.886 0 0 1 0.311 23.706 A 11.959 11.959 0 0 1 0.45 23.3 L 8.6 19.35 Q 11.6 17.9 14 16.5 A 19.565 19.565 0 0 0 15.883 15.26 Q 17.012 14.413 17.825 13.5 Q 19.25 11.9 19.25 9.85 A 5.477 5.477 0 0 0 17.592 5.867 A 6.947 6.947 0 0 0 17.525 5.8 A 5.438 5.438 0 0 0 15.381 4.525 Q 14.1 4.1 12.4 4.1 A 9.132 9.132 0 0 0 10.043 4.388 A 6.627 6.627 0 0 0 6.975 6.15 A 6.668 6.668 0 0 0 5.31 9.089 Q 5.018 10.128 4.963 11.368 A 13.165 13.165 0 0 0 4.95 11.95 Q 4.95 13.127 5.07 14.005 A 7.925 7.925 0 0 0 5.2 14.725 A 9.272 9.272 0 0 0 5.663 16.18 A 8.116 8.116 0 0 0 5.9 16.7 A 2.112 2.112 0 0 1 5.603 17.017 Q 5.346 17.242 4.975 17.45 Q 4.35 17.8 3.65 17.8 A 3.261 3.261 0 0 1 2.68 17.659 A 2.955 2.955 0 0 1 2.275 17.5 A 2.222 2.222 0 0 1 1.627 17.02 Q 1.397 16.778 1.2 16.45 Q 0.144 14.962 0.102 12.001 A 17.496 17.496 0 0 1 0.1 11.75 A 14.305 14.305 0 0 1 0.435 8.584 A 11.028 11.028 0 0 1 1.625 5.5 Q 3.15 2.85 5.925 1.425 A 12.61 12.61 0 0 1 9.564 0.235 A 16.96 16.96 0 0 1 12.45 0 A 17.623 17.623 0 0 1 15.277 0.215 Q 16.808 0.464 18.082 1.001 A 10.094 10.094 0 0 1 18.775 1.325 A 10.303 10.303 0 0 1 21.255 3.08 A 8.915 8.915 0 0 1 22.7 4.9 Q 24.05 7.15 24.05 9.85 A 6.972 6.972 0 0 1 24.012 10.569 A 7.733 7.733 0 0 1 24 10.675 A 5.471 5.471 0 0 1 23.928 11.13 A 4.289 4.289 0 0 1 23.85 11.45 Q 23.85 11.5 23.7 11.675 L 23.55 11.85 Q 23.2 13.65 22.05 15.075 A 13.637 13.637 0 0 1 20.411 16.768 A 17.207 17.207 0 0 1 19.175 17.75 A 26.649 26.649 0 0 1 16.843 19.254 A 32.649 32.649 0 0 1 15.275 20.1 A 230.941 230.941 0 0 1 11.886 21.778 A 263.2 263.2 0 0 1 10.7 22.35 L 5.3 25 L 5.35 25.25 Q 6.106 25.216 7.087 25.158 A 217.431 217.431 0 0 0 8.025 25.1 A 149.884 149.884 0 0 1 9.644 25.006 A 175.249 175.249 0 0 1 11.35 24.925 A 288.016 288.016 0 0 1 13.905 24.827 A 257.348 257.348 0 0 1 14.725 24.8 Q 15.842 24.766 16.735 24.755 A 63.764 63.764 0 0 1 17.5 24.75 L 22.25 24.75 L 22.25 19.2 A 138.494 138.494 0 0 1 22.269 16.881 A 111.471 111.471 0 0 1 22.325 14.725 Q 22.4 12.65 22.55 10.45 Z" vector-effect="non-scaling-stroke"/></g></svg>