<svg width="1115.6055664062499px" height="204.79999999999998px" xmlns="http://www.w3.org/2000/svg" viewBox="-307.80278320312493 -27.39999999999999 1115.6055664062499 204.79999999999998" style="background: rgba(89, 104, 134, 0);" preserveAspectRatio="xMidYMid"><defs><filter id="editing-hover" x="-100%" y="-100%" width="300%" height="300%"><feFlood flood-color="#34495e" result="flood"></feFlood><feComposite operator="in" in2="SourceAlpha" in="flood" result="shadow"></feComposite><feOffset dx="-0.6" dy="0.8" in="SourceGraphic" result="offset-1"></feOffset><feOffset dx="0.6" dy="-0.8" in="shadow" result="offset-2"></feOffset><feMerge><feMergeNode in="offset-2"></feMergeNode><feMergeNode in="offset-1"></feMergeNode></feMerge></filter></defs><g filter="url(#editing-hover)"><g transform="translate(-236.71021175384521, 115.79499912261963)"><path d="M26.32-11.00L26.41-10.62L26.41-10.62Q27.73-10.72 29.89-10.86L29.89-10.86L29.89-10.86Q32.05-11.00 34.31-11.09L34.31-11.09L34.31-11.09Q36.57-11.19 38.59-11.23L38.59-11.23L38.59-11.23Q40.61-11.28 41.74-11.28L41.74-11.28L45.87-11.28L45.87-21.34L45.87-21.34Q44.27-19.74 41.92-18.24L41.92-18.24L41.92-18.24Q39.57-16.73 36.90-15.42L36.90-15.42L36.90-15.42Q34.22-14.10 31.44-12.97L31.44-12.97L31.44-12.97Q28.67-11.84 26.32-11.00L26.32-11.00ZM50.85 0L11.84 0L11.84 0Q7.90 0 5.97-2.54L5.97-2.54L5.97-2.54Q4.04-5.08 4.04-8.46L4.04-8.46L4.04-8.46Q4.04-10.25 4.42-11.33L4.42-11.33L4.42-11.33Q4.79-12.41 5.36-13.72L5.36-13.72L16.83-17.86L16.83-17.86Q27.07-21.53 32.34-25.33L32.34-25.33L32.34-25.33Q37.60-29.14 37.60-33.93L37.60-33.93L37.60-33.93Q37.60-37.88 35.25-40.04L35.25-40.04L35.25-40.04Q32.90-42.21 29.33-42.21L29.33-42.21L29.33-42.21Q25.29-42.21 22.56-39.24L22.56-39.24L22.56-39.24Q19.83-36.28 19.83-29.99L19.83-29.99L19.83-29.99Q19.83-27.73 19.88-26.18L19.88-26.18L19.88-26.18Q19.93-24.63 20.12-23.50L20.12-23.50L20.12-23.50Q19.08-22.56 17.25-21.90L17.25-21.90L17.25-21.90Q15.42-21.24 13.35-21.24L13.35-21.24L13.35-21.24Q9.12-21.24 6.77-24.11L6.77-24.11L6.77-24.11Q4.42-26.98 4.42-31.49L4.42-31.49L4.42-31.49Q4.42-36.75 6.16-41.03L6.16-41.03L6.16-41.03Q7.90-45.31 11.14-48.32L11.14-48.32L11.14-48.32Q14.38-51.32 19.04-52.92L19.04-52.92L19.04-52.92Q23.69-54.52 29.52-54.52L29.52-54.52L29.52-54.52Q34.59-54.52 38.82-53.25L38.82-53.25L38.82-53.25Q43.05-51.98 46.20-49.59L46.20-49.59L46.20-49.59Q49.35-47.19 51.23-43.85L51.23-43.85L51.23-43.85Q53.11-40.51 53.58-36.28L53.58-36.28L53.58-36.28Q57.15-36.28 58.52-34.69L58.52-34.69L58.52-34.69Q59.88-33.09 59.88-30.74L59.88-30.74L59.88-9.02L59.88-9.02Q59.88-4.79 57.48-2.40L57.48-2.40L57.48-2.40Q55.08 0 50.85 0L50.85 0ZM111.58-20.02L111.58-20.02L111.58-20.02Q111.58-15.23 109.98-11.33L109.98-11.33L109.98-11.33Q108.38-7.43 105.51-4.65L105.51-4.65L105.51-4.65Q102.65-1.88 98.65-0.42L98.65-0.42L98.65-0.42Q94.66 1.03 89.77 1.03L89.77 1.03L89.77 1.03Q84.88 1.03 80.89-0.42L80.89-0.42L80.89-0.42Q76.89-1.88 74.02-4.65L74.02-4.65L74.02-4.65Q71.16-7.43 69.56-11.33L69.56-11.33L69.56-11.33Q67.96-15.23 67.96-20.02L67.96-20.02L67.96-20.02Q67.96-24.82 69.56-28.72L69.56-28.72L69.56-28.72Q71.16-32.62 74.02-35.34L74.02-35.34L74.02-35.34Q76.89-38.07 80.89-39.53L80.89-39.53L80.89-39.53Q84.88-40.98 89.77-40.98L89.77-40.98L89.77-40.98Q94.66-40.98 98.65-39.53L98.65-39.53L98.65-39.53Q102.65-38.07 105.51-35.34L105.51-35.34L105.51-35.34Q108.38-32.62 109.98-28.72L109.98-28.72L109.98-28.72Q111.58-24.82 111.58-20.02ZM82.81-20.02L82.81-20.02L82.81-20.02Q82.81-15.79 84.74-13.35L84.74-13.35L84.74-13.35Q86.67-10.90 89.77-10.90L89.77-10.90L89.77-10.90Q92.87-10.90 94.75-13.35L94.75-13.35L94.75-13.35Q96.63-15.79 96.63-20.02L96.63-20.02L96.63-20.02Q96.63-24.25 94.75-26.65L94.75-26.65L94.75-26.65Q92.87-29.05 89.77-29.05L89.77-29.05L89.77-29.05Q86.67-29.05 84.74-26.65L84.74-26.65L84.74-26.65Q82.81-24.25 82.81-20.02ZM164.78-33.18L164.78-19.83L164.78-19.83Q164.78-14.76 163.14-10.90L163.14-10.90L163.14-10.90Q161.49-7.05 158.58-4.42L158.58-4.42L158.58-4.42Q155.66-1.79 151.57-0.42L151.57-0.42L151.57-0.42Q147.49 0.94 142.60 0.94L142.60 0.94L142.60 0.94Q136.96 0.94 132.35-0.75L132.35-0.75L132.35-0.75Q127.75-2.44 124.50-5.97L124.50-5.97L124.50-5.97Q121.26-9.49 119.47-14.76L119.47-14.76L119.47-14.76Q117.69-20.02 117.69-27.26L117.69-27.26L117.69-27.26Q117.69-33.56 119.85-39.39L119.85-39.39L119.85-39.39Q122.01-45.21 125.68-49.16L125.68-49.16L125.68-49.16Q127.75-51.42 130.19-52.78L130.19-52.78L130.19-52.78Q132.63-54.14 135.55-54.14L135.55-54.14L135.55-54.14Q138.93-54.14 141.14-51.89L141.14-51.89L141.14-51.89Q143.35-49.63 143.82-46.62L143.82-46.62L143.82-46.62Q139.21-43.24 136.49-38.26L136.49-38.26L136.49-38.26Q133.76-33.28 133.76-26.51L133.76-26.51L133.76-26.51Q133.76-19.65 136.11-15.74L136.11-15.74L136.11-15.74Q138.46-11.84 142.41-11.84L142.41-11.84L142.41-11.84Q145.51-11.84 147.25-14.05L147.25-14.05L147.25-14.05Q148.99-16.26 148.99-20.21L148.99-20.21L148.99-33.56L148.99-33.56Q148.99-38.63 150.63-42.49L150.63-42.49L150.63-42.49Q152.28-46.34 155.19-49.02L155.19-49.02L155.19-49.02Q158.11-51.70 162.20-53.06L162.20-53.06L162.20-53.06Q166.29-54.43 171.17-54.43L171.17-54.43L171.17-54.43Q176.81-54.43 181.42-52.73L181.42-52.73L181.42-52.73Q186.03-51.04 189.27-47.52L189.27-47.52L189.27-47.52Q192.51-43.99 194.30-38.68L194.30-38.68L194.30-38.68Q196.08-33.37 196.08-26.13L196.08-26.13L196.08-26.13Q196.08-19.83 193.97-13.96L193.97-13.96L193.97-13.96Q191.85-8.08 188.19-4.14L188.19-4.14L188.19-4.14Q186.12-1.88 183.68-0.52L183.68-0.52L183.68-0.52Q181.23 0.85 178.32 0.85L178.32 0.85L178.32 0.85Q174.93 0.85 172.68-1.41L172.68-1.41L172.68-1.41Q170.42-3.67 169.95-6.67L169.95-6.67L169.95-6.67Q174.56-10.06 177.28-15.09L177.28-15.09L177.28-15.09Q180.01-20.12 180.01-26.88L180.01-26.88L180.01-26.88Q180.01-33.75 177.66-37.69L177.66-37.69L177.66-37.69Q175.31-41.64 171.36-41.64L171.36-41.64L171.36-41.64Q168.26-41.64 166.52-39.39L166.52-39.39L166.52-39.39Q164.78-37.13 164.78-33.18L164.78-33.18ZM185.46-70.59L185.46-70.59L185.46-70.59Q189.32-70.59 192.00-72.00L192.00-72.00L192.00-72.00Q194.67-73.41 196.27-75.86L196.27-75.86L196.27-75.86Q198.81-75.29 200.78-73.51L200.78-73.51L200.78-73.51Q202.76-71.72 202.76-68.71L202.76-68.71L202.76-68.71Q202.76-64.01 198.15-61.05L198.15-61.05L198.15-61.05Q193.55-58.09 185.46-58.09L185.46-58.09L185.46-58.09Q177.38-58.09 172.77-61.05L172.77-61.05L172.77-61.05Q168.17-64.01 168.17-68.71L168.17-68.71L168.17-68.71Q168.17-71.72 170.14-73.51L170.14-73.51L170.14-73.51Q172.11-75.29 174.65-75.86L174.65-75.86L174.65-75.86Q176.25-73.41 178.93-72.00L178.93-72.00L178.93-72.00Q181.61-70.59 185.46-70.59ZM219.87-30.74L235-30.74L235-34.59L235-34.59Q235-38.35 233.03-40.56L233.03-40.56L233.03-40.56Q231.05-42.77 227.48-42.77L227.48-42.77L227.48-42.77Q223.91-42.77 221.89-40.56L221.89-40.56L221.89-40.56Q219.87-38.35 219.87-34.59L219.87-34.59L219.87-30.74ZM265.83 0L213.66 0L213.66 0Q209.43 0 207.03-2.40L207.03-2.40L207.03-2.40Q204.64-4.79 204.64-9.02L204.64-9.02L204.64-33.37L204.64-33.37Q204.64-38.26 206.24-42.16L206.24-42.16L206.24-42.16Q207.83-46.06 210.79-48.79L210.79-48.79L210.79-48.79Q213.76-51.51 217.99-52.97L217.99-52.97L217.99-52.97Q222.22-54.43 227.48-54.43L227.48-54.43L227.48-54.43Q232.74-54.43 236.93-52.97L236.93-52.97L236.93-52.97Q241.11-51.51 244.07-48.79L244.07-48.79L244.07-48.79Q247.03-46.06 248.63-42.16L248.63-42.16L248.63-42.16Q250.23-38.26 250.23-33.37L250.23-33.37L250.23-23.88L250.23-23.88Q250.23-22.09 249.19-20.87L249.19-20.87L249.19-20.87Q248.16-19.65 246.00-19.65L246.00-19.65L219.87-19.65L219.87-12.31L259.06-12.31L259.06-53.02L259.06-53.02Q260.00-53.30 262.17-53.58L262.17-53.58L262.17-53.58Q264.33-53.86 266.30-53.86L266.30-53.86L266.30-53.86Q270.53-53.86 272.69-52.45L272.69-52.45L272.69-52.45Q274.86-51.04 274.86-46.25L274.86-46.25L274.86-9.02L274.86-9.02Q274.86-4.79 272.46-2.40L272.46-2.40L272.46-2.40Q270.06 0 265.83 0L265.83 0ZM294.69 0.75L294.69 0.75L294.69 0.75Q290.46 0.75 288.30-0.66L288.30-0.66L288.30-0.66Q286.14-2.07 286.14-6.86L286.14-6.86L286.14-52.73L286.14-52.73Q284.82-51.79 283.13-51.47L283.13-51.47L283.13-51.47Q281.44-51.14 279.37-51.14L279.37-51.14L279.37-51.14Q276.64-51.14 273.87-51.94L273.87-51.94L273.87-51.94Q271.10-52.73 268.89-54.47L268.89-54.47L268.89-54.47Q266.68-56.21 265.27-58.89L265.27-58.89L265.27-58.89Q263.86-61.57 263.86-65.42L263.86-65.42L263.86-65.42Q263.86-69.18 265.36-72.00L265.36-72.00L265.36-72.00Q266.87-74.82 269.40-76.70L269.40-76.70L269.40-76.70Q271.94-78.58 275.28-79.52L275.28-79.52L275.28-79.52Q278.62-80.46 282.28-80.46L282.28-80.46L282.28-80.46Q285.76-80.46 289.24-79.48L289.24-79.48L289.24-79.48Q292.72-78.49 295.49-76.14L295.49-76.14L295.49-76.14Q298.26-73.79 300.00-69.89L300.00-69.89L300.00-69.89Q301.74-65.99 301.74-60.16L301.74-60.16L301.74-0.09L301.74-0.09Q300.80 0.09 298.73 0.42L298.73 0.42L298.73 0.42Q296.66 0.75 294.69 0.75ZM277.68-65.61L277.68-65.61L277.68-65.61Q277.68-63.64 278.90-62.37L278.90-62.37L278.90-62.37Q280.12-61.10 282.19-61.10L282.19-61.10L282.19-61.10Q284.26-61.10 285.48-62.37L285.48-62.37L285.48-62.37Q286.70-63.64 286.70-65.61L286.70-65.61L286.70-65.61Q286.70-67.59 285.48-68.81L285.48-68.81L285.48-68.81Q284.26-70.03 282.19-70.03L282.19-70.03L282.19-70.03Q280.12-70.03 278.90-68.81L278.90-68.81L278.90-68.81Q277.68-67.59 277.68-65.61ZM354.19-12.03L370.83-12.03L370.83-12.03Q371.77-14.19 372.71-16.50L372.71-16.50L372.71-16.50Q373.65-18.80 374.50-21.24L374.50-21.24L374.50-21.24Q371.11-21.24 367.54-22.28L367.54-22.28L367.54-22.28Q363.97-23.31 361.05-25.33L361.05-25.33L361.05-25.33Q358.14-27.35 356.31-30.46L356.31-30.46L356.31-30.46Q354.47-33.56 354.47-37.79L354.47-37.79L354.47-37.79Q354.47-42.02 356.07-45.21L356.07-45.21L356.07-45.21Q357.67-48.41 360.35-50.48L360.35-50.48L360.35-50.48Q363.03-52.55 366.41-53.58L366.41-53.58L366.41-53.58Q369.80-54.61 373.46-54.61L373.46-54.61L373.46-54.61Q377.69-54.61 381.22-53.25L381.22-53.25L381.22-53.25Q384.74-51.89 387.28-49.59L387.28-49.59L387.28-49.59Q389.82-47.28 391.18-44.13L391.18-44.13L391.18-44.13Q392.54-40.98 392.54-37.41L392.54-37.41L392.54-37.41Q392.54-36.75 392.50-36.10L392.50-36.10L392.50-36.10Q392.45-35.44 392.45-34.78L392.45-34.78L392.45-34.78Q395.36-36.66 397.81-40.28L397.81-40.28L397.81-40.28Q400.25-43.90 401.10-48.32L401.10-48.32L401.76-51.79L401.76-51.79Q402.60-52.08 404.15-52.41L404.15-52.41L404.15-52.41Q405.70-52.73 407.58-52.73L407.58-52.73L407.58-52.73Q409.65-52.73 411.20-52.45L411.20-52.45L411.20-52.45Q412.75-52.17 413.79-51.37L413.79-51.37L413.79-51.37Q414.82-50.57 415.39-49.12L415.39-49.12L415.39-49.12Q415.95-47.66 415.95-45.31L415.95-45.31L415.95-9.02L415.95-9.02Q415.95-4.79 413.55-2.40L413.55-2.40L413.55-2.40Q411.16 0 406.93 0L406.93 0L344.70 0L344.70 0Q341.22 0 339.20-2.12L339.20-2.12L339.20-2.12Q337.18-4.23 337.18-8.37L337.18-8.37L337.18-8.37Q338.59-9.87 339.48-11.94L339.48-11.94L339.48-11.94Q340.37-14.01 340.37-16.45L340.37-16.45L340.37-16.45Q340.37-20.30 338.40-22.51L338.40-22.51L338.40-22.51Q336.43-24.72 333.23-24.72L333.23-24.72L333.23-24.72Q330.03-24.72 328.01-22.47L328.01-22.47L328.01-22.47Q325.99-20.21 325.99-15.98L325.99-15.98L325.99-15.98Q325.99-12.50 327.17-10.11L327.17-10.11L327.17-10.11Q328.34-7.71 330.03-5.64L330.03-5.64L330.03-5.64Q329.56-2.63 327.31-0.89L327.31-0.89L327.31-0.89Q325.05 0.85 322.04 0.85L322.04 0.85L322.04 0.85Q319.60 0.85 317.44-0.38L317.44-0.38L317.44-0.38Q315.28-1.60 313.68-3.85L313.68-3.85L313.68-3.85Q312.08-6.11 311.19-9.26L311.19-9.26L311.19-9.26Q310.29-12.41 310.29-16.17L310.29-16.17L310.29-16.17Q310.29-21.06 311.94-24.96L311.94-24.96L311.94-24.96Q313.58-28.86 316.59-31.58L316.59-31.58L316.59-31.58Q319.60-34.31 323.83-35.77L323.83-35.77L323.83-35.77Q328.06-37.22 333.23-37.22L333.23-37.22L333.23-37.22Q338.31-37.22 342.44-35.86L342.44-35.86L342.44-35.86Q346.58-34.50 349.44-32.05L349.44-32.05L349.44-32.05Q352.31-29.61 353.91-26.27L353.91-26.27L353.91-26.27Q355.51-22.94 355.51-18.99L355.51-18.99L355.51-18.99Q355.51-17.20 355.23-15.42L355.23-15.42L355.23-15.42Q354.94-13.63 354.19-12.03L354.19-12.03ZM400.63-12.03L400.63-27.07L400.63-27.07Q398.47-25.38 395.83-24.02L395.83-24.02L395.83-24.02Q393.20-22.65 389.72-21.71L389.72-21.71L389.72-21.71Q388.97-19.18 388.13-16.78L388.13-16.78L388.13-16.78Q387.28-14.38 386.53-12.03L386.53-12.03L400.63-12.03ZM369.14-38.82L369.14-38.82L369.14-38.82Q369.14-35.25 371.54-33.56L371.54-33.56L371.54-33.56Q373.93-31.87 377.13-31.68L377.13-31.68L377.13-31.68Q377.97-34.59 377.97-37.32L377.97-37.32L377.97-37.32Q377.97-40.14 376.80-41.74L376.80-41.74L376.80-41.74Q375.62-43.33 373.46-43.33L373.46-43.33L373.46-43.33Q371.58-43.33 370.36-42.21L370.36-42.21L370.36-42.21Q369.14-41.08 369.14-38.82ZM407.49-70.59L407.49-70.59L407.49-70.59Q411.34-70.59 414.02-72.00L414.02-72.00L414.02-72.00Q416.70-73.41 418.30-75.86L418.30-75.86L418.30-75.86Q420.84-75.29 422.81-73.51L422.81-73.51L422.81-73.51Q424.79-71.72 424.79-68.71L424.79-68.71L424.79-68.71Q424.79-64.01 420.18-61.05L420.18-61.05L420.18-61.05Q415.57-58.09 407.49-58.09L407.49-58.09L407.49-58.09Q399.41-58.09 394.80-61.05L394.80-61.05L394.80-61.05Q390.19-64.01 390.19-68.71L390.19-68.71L390.19-68.71Q390.19-71.72 392.17-73.51L392.17-73.51L392.17-73.51Q394.14-75.29 396.68-75.86L396.68-75.86L396.68-75.86Q398.28-73.41 400.96-72.00L400.96-72.00L400.96-72.00Q403.64-70.59 407.49-70.59ZM443.96-37.51L443.96-37.51L443.96-37.51Q443.96-40.98 445.42-44.04L445.42-44.04L445.42-44.04Q446.88-47.09 449.88-49.44L449.88-49.44L449.88-49.44Q452.89-51.79 457.64-53.16L457.64-53.16L457.64-53.16Q462.39-54.52 468.97-54.52L468.97-54.52L468.97-54.52Q473.38-54.52 477.38-53.86L477.38-53.86L477.38-53.86Q481.37-53.20 484.38-51.94L484.38-51.94L484.38-51.94Q487.39-50.67 489.18-48.83L489.18-48.83L489.18-48.83Q490.96-47 490.96-44.74L490.96-44.74L490.96-44.74Q490.96-42.39 489.88-40.56L489.88-40.56L489.88-40.56Q488.80-38.73 487.11-37.32L487.11-37.32L487.11-37.32Q484.48-38.82 479.87-40.42L479.87-40.42L479.87-40.42Q475.26-42.02 469.06-42.02L469.06-42.02L469.06-42.02Q464.17-42.02 461.96-40.89L461.96-40.89L461.96-40.89Q459.75-39.76 459.75-37.88L459.75-37.88L459.75-37.88Q459.75-36.47 460.93-35.58L460.93-35.58L460.93-35.58Q462.10-34.69 464.13-34.17L464.13-34.17L464.13-34.17Q466.15-33.65 468.78-33.28L468.78-33.28L468.78-33.28Q471.41-32.90 474.32-32.52L474.32-32.52L474.32-32.52Q483.25-31.21 488.24-27.64L488.24-27.64L488.24-27.64Q493.22-24.06 493.22-16.73L493.22-16.73L493.22-16.73Q493.22-8.18 486.59-3.52L486.59-3.52L486.59-3.52Q479.96 1.13 467.56 1.13L467.56 1.13L467.56 1.13Q462.01 1.13 457.59 0.23L457.59 0.23L457.59 0.23Q453.17-0.66 450.02-2.21L450.02-2.21L450.02-2.21Q446.88-3.76 445.18-5.97L445.18-5.97L445.18-5.97Q443.49-8.18 443.49-10.81L443.49-10.81L443.49-10.81Q443.49-13.54 444.95-15.51L444.95-15.51L444.95-15.51Q446.41-17.48 448.57-18.61L448.57-18.61L448.57-18.61Q452.23-15.60 456.93-13.54L456.93-13.54L456.93-13.54Q461.63-11.47 467.37-11.47L467.37-11.47L467.37-11.47Q471.88-11.47 474.61-12.64L474.61-12.64L474.61-12.64Q477.33-13.82 477.33-16.26L477.33-16.26L477.33-16.26Q477.33-18.71 474.37-19.60L474.37-19.60L474.37-19.60Q471.41-20.49 465.02-21.24L465.02-21.24L465.02-21.24Q461.26-21.71 457.50-22.65L457.50-22.65L457.50-22.65Q453.74-23.59 450.73-25.43L450.73-25.43L450.73-25.43Q447.72-27.26 445.84-30.17L445.84-30.17L445.84-30.17Q443.96-33.09 443.96-37.51ZM562.50-23.22L562.50-23.22L562.50-23.22Q562.50-18.42 561.56-14.10L561.56-14.10L561.56-14.10Q560.62-9.78 558.83-6.44L558.83-6.44L558.83-6.44Q557.04-3.10 554.37-1.13L554.37-1.13L554.37-1.13Q551.69 0.85 548.30 0.85L548.30 0.85L548.30 0.85Q545.48 0.85 543.32-0.89L543.32-0.89L543.32-0.89Q541.16-2.63 540.31-5.08L540.31-5.08L540.31-5.08Q543.32-8.37 544.97-12.78L544.97-12.78L544.97-12.78Q546.61-17.20 546.61-23.03L546.61-23.03L546.61-23.03Q546.61-27.92 545.29-31.49L545.29-31.49L545.29-31.49Q543.98-35.06 541.77-37.32L541.77-37.32L541.77-37.32Q539.56-39.57 536.60-40.66L536.60-40.66L536.60-40.66Q533.64-41.74 530.44-41.74L530.44-41.74L530.44-41.74Q524.24-41.74 519.87-38.40L519.87-38.40L519.87-38.40Q515.50-35.06 514.18-28.76L514.18-28.76L514.18-28.76Q515.87-30.27 518.22-31.07L518.22-31.07L518.22-31.07Q520.57-31.87 523.02-31.87L523.02-31.87L523.02-31.87Q526.21-31.87 529.13-30.79L529.13-30.79L529.13-30.79Q532.04-29.70 534.20-27.68L534.20-27.68L534.20-27.68Q536.36-25.66 537.68-22.70L537.68-22.70L537.68-22.70Q539.00-19.74 539.00-16.07L539.00-16.07L539.00-16.07Q539.00-12.69 537.77-9.59L537.77-9.59L537.77-9.59Q536.55-6.49 534.20-4.09L534.20-4.09L534.20-4.09Q531.85-1.69 528.33-0.28L528.33-0.28L528.33-0.28Q524.80 1.13 520.20 1.13L520.20 1.13L520.20 1.13Q516.15 1.13 512.49-0.23L512.49-0.23L512.49-0.23Q508.82-1.60 506.00-4.56L506.00-4.56L506.00-4.56Q503.18-7.52 501.49-12.13L501.49-12.13L501.49-12.13Q499.80-16.73 499.80-23.12L499.80-23.12L499.80-23.12Q499.80-30.46 502.05-36.28L502.05-36.28L502.05-36.28Q504.31-42.11 508.45-46.15L508.45-46.15L508.45-46.15Q512.58-50.20 518.32-52.31L518.32-52.31L518.32-52.31Q524.05-54.43 531.10-54.43L531.10-54.43L531.10-54.43Q538.15-54.43 543.93-52.31L543.93-52.31L543.93-52.31Q549.71-50.20 553.85-46.20L553.85-46.20L553.85-46.20Q557.98-42.21 560.24-36.38L560.24-36.38L560.24-36.38Q562.50-30.55 562.50-23.22ZM514.37-15.89L514.37-15.89L514.37-15.89Q514.37-13.44 515.87-12.03L515.87-12.03L515.87-12.03Q517.38-10.62 519.54-10.62L519.54-10.62L519.54-10.62Q521.70-10.62 523.20-12.03L523.20-12.03L523.20-12.03Q524.71-13.44 524.71-15.89L524.71-15.89L524.71-15.89Q524.71-18.33 523.20-19.74L523.20-19.74L523.20-19.74Q521.70-21.15 519.54-21.15L519.54-21.15L519.54-21.15Q517.38-21.15 515.87-19.74L515.87-19.74L515.87-19.74Q514.37-18.33 514.37-15.89ZM631.77-23.22L631.77-23.22L631.77-23.22Q631.77-18.42 630.83-14.10L630.83-14.10L630.83-14.10Q629.89-9.78 628.11-6.44L628.11-6.44L628.11-6.44Q626.32-3.10 623.64-1.13L623.64-1.13L623.64-1.13Q620.96 0.85 617.58 0.85L617.58 0.85L617.58 0.85Q614.76 0.85 612.60-0.89L612.60-0.89L612.60-0.89Q610.44-2.63 609.59-5.08L609.59-5.08L609.59-5.08Q612.60-8.37 614.24-12.78L614.24-12.78L614.24-12.78Q615.89-17.20 615.89-23.03L615.89-23.03L615.89-23.03Q615.89-27.92 614.57-31.49L614.57-31.49L614.57-31.49Q613.26-35.06 611.05-37.32L611.05-37.32L611.05-37.32Q608.84-39.57 605.88-40.66L605.88-40.66L605.88-40.66Q602.92-41.74 599.72-41.74L599.72-41.74L599.72-41.74Q593.52-41.74 589.14-38.40L589.14-38.40L589.14-38.40Q584.77-35.06 583.46-28.76L583.46-28.76L583.46-28.76Q585.15-30.27 587.50-31.07L587.50-31.07L587.50-31.07Q589.85-31.87 592.29-31.87L592.29-31.87L592.29-31.87Q595.49-31.87 598.40-30.79L598.40-30.79L598.40-30.79Q601.32-29.70 603.48-27.68L603.48-27.68L603.48-27.68Q605.64-25.66 606.96-22.70L606.96-22.70L606.96-22.70Q608.27-19.74 608.27-16.07L608.27-16.07L608.27-16.07Q608.27-12.69 607.05-9.59L607.05-9.59L607.05-9.59Q605.83-6.49 603.48-4.09L603.48-4.09L603.48-4.09Q601.13-1.69 597.61-0.28L597.61-0.28L597.61-0.28Q594.08 1.13 589.47 1.13L589.47 1.13L589.47 1.13Q585.43 1.13 581.77-0.23L581.77-0.23L581.77-0.23Q578.10-1.60 575.28-4.56L575.28-4.56L575.28-4.56Q572.46-7.52 570.77-12.13L570.77-12.13L570.77-12.13Q569.08-16.73 569.08-23.12L569.08-23.12L569.08-23.12Q569.08-30.46 571.33-36.28L571.33-36.28L571.33-36.28Q573.59-42.11 577.72-46.15L577.72-46.15L577.72-46.15Q581.86-50.20 587.59-52.31L587.59-52.31L587.59-52.31Q593.33-54.43 600.38-54.43L600.38-54.43L600.38-54.43Q607.43-54.43 613.21-52.31L613.21-52.31L613.21-52.31Q618.99-50.20 623.13-46.20L623.13-46.20L623.13-46.20Q627.26-42.21 629.52-36.38L629.52-36.38L629.52-36.38Q631.77-30.55 631.77-23.22ZM583.65-15.89L583.65-15.89L583.65-15.89Q583.65-13.44 585.15-12.03L585.15-12.03L585.15-12.03Q586.65-10.62 588.82-10.62L588.82-10.62L588.82-10.62Q590.98-10.62 592.48-12.03L592.48-12.03L592.48-12.03Q593.99-13.44 593.99-15.89L593.99-15.89L593.99-15.89Q593.99-18.33 592.48-19.74L592.48-19.74L592.48-19.74Q590.98-21.15 588.82-21.15L588.82-21.15L588.82-21.15Q586.65-21.15 585.15-19.74L585.15-19.74L585.15-19.74Q583.65-18.33 583.65-15.89ZM707.35 0L672.57 0L672.57 0Q669.09 0 667.07-2.07L667.07-2.07L667.07-2.07Q665.05-4.14 665.05-8.37L665.05-8.37L665.05-8.37Q666.46-9.87 667.35-11.94L667.35-11.94L667.35-11.94Q668.25-14.01 668.25-16.45L668.25-16.45L668.25-16.45Q668.25-20.30 666.27-22.51L666.27-22.51L666.27-22.51Q664.30-24.72 661.10-24.72L661.10-24.72L661.10-24.72Q657.91-24.72 655.88-22.47L655.88-22.47L655.88-22.47Q653.86-20.21 653.86-15.98L653.86-15.98L653.86-15.98Q653.86-12.50 655.04-10.11L655.04-10.11L655.04-10.11Q656.21-7.71 657.91-5.64L657.91-5.64L657.91-5.64Q657.44-2.63 655.18-0.89L655.18-0.89L655.18-0.89Q652.92 0.85 649.92 0.85L649.92 0.85L649.92 0.85Q647.47 0.85 645.31-0.38L645.31-0.38L645.31-0.38Q643.15-1.60 641.55-3.85L641.55-3.85L641.55-3.85Q639.95-6.11 639.06-9.26L639.06-9.26L639.06-9.26Q638.17-12.41 638.17-16.17L638.17-16.17L638.17-16.17Q638.17-21.06 639.81-24.96L639.81-24.96L639.81-24.96Q641.46-28.86 644.46-31.58L644.46-31.58L644.46-31.58Q647.47-34.31 651.70-35.77L651.70-35.77L651.70-35.77Q655.93-37.22 661.10-37.22L661.10-37.22L661.10-37.22Q666.18-37.22 670.31-35.86L670.31-35.86L670.31-35.86Q674.45-34.50 677.32-32.05L677.32-32.05L677.32-32.05Q680.18-29.61 681.78-26.27L681.78-26.27L681.78-26.27Q683.38-22.94 683.38-18.99L683.38-18.99L683.38-18.99Q683.38-17.20 683.14-15.51L683.14-15.51L683.14-15.51Q682.91-13.82 682.16-12.22L682.16-12.22L700.58-12.22L700.58-53.11L700.58-53.11Q701.62-53.30 703.78-53.63L703.78-53.63L703.78-53.63Q705.94-53.96 707.91-53.96L707.91-53.96L707.91-53.96Q709.98-53.96 711.53-53.67L711.53-53.67L711.53-53.67Q713.08-53.39 714.16-52.55L714.16-52.55L714.16-52.55Q715.25-51.70 715.81-50.24L715.81-50.24L715.81-50.24Q716.37-48.79 716.37-46.44L716.37-46.44L716.37-9.02L716.37-9.02Q716.37-4.79 713.98-2.40L713.98-2.40L713.98-2.40Q711.58 0 707.35 0L707.35 0ZM707.91-70.59L707.91-70.59L707.91-70.59Q711.77-70.59 714.45-72.00L714.45-72.00L714.45-72.00Q717.13-73.41 718.72-75.86L718.72-75.86L718.72-75.86Q721.26-75.29 723.24-73.51L723.24-73.51L723.24-73.51Q725.21-71.72 725.21-68.71L725.21-68.71L725.21-68.71Q725.21-64.01 720.60-61.05L720.60-61.05L720.60-61.05Q716.00-58.09 707.91-58.09L707.91-58.09L707.91-58.09Q699.83-58.09 695.22-61.05L695.22-61.05L695.22-61.05Q690.62-64.01 690.62-68.71L690.62-68.71L690.62-68.71Q690.62-71.72 692.59-73.51L692.59-73.51L692.59-73.51Q694.57-75.29 697.10-75.86L697.10-75.86L697.10-75.86Q698.70-73.41 701.38-72.00L701.38-72.00L701.38-72.00Q704.06-70.59 707.91-70.59ZM794.11 0L759.33 0L759.33 0Q755.85 0 753.83-2.07L753.83-2.07L753.83-2.07Q751.81-4.14 751.81-8.37L751.81-8.37L751.81-8.37Q753.22-9.87 754.12-11.94L754.12-11.94L754.12-11.94Q755.01-14.01 755.01-16.45L755.01-16.45L755.01-16.45Q755.01-20.30 753.03-22.51L753.03-22.51L753.03-22.51Q751.06-24.72 747.86-24.72L747.86-24.72L747.86-24.72Q744.67-24.72 742.65-22.47L742.65-22.47L742.65-22.47Q740.63-20.21 740.63-15.98L740.63-15.98L740.63-15.98Q740.63-12.50 741.80-10.11L741.80-10.11L741.80-10.11Q742.98-7.71 744.67-5.64L744.67-5.64L744.67-5.64Q744.20-2.63 741.94-0.89L741.94-0.89L741.94-0.89Q739.69 0.85 736.68 0.85L736.68 0.85L736.68 0.85Q734.23 0.85 732.07-0.38L732.07-0.38L732.07-0.38Q729.91-1.60 728.31-3.85L728.31-3.85L728.31-3.85Q726.71-6.11 725.82-9.26L725.82-9.26L725.82-9.26Q724.93-12.41 724.93-16.17L724.93-16.17L724.93-16.17Q724.93-21.06 726.57-24.96L726.57-24.96L726.57-24.96Q728.22-28.86 731.23-31.58L731.23-31.58L731.23-31.58Q734.23-34.31 738.46-35.77L738.46-35.77L738.46-35.77Q742.69-37.22 747.86-37.22L747.86-37.22L747.86-37.22Q752.94-37.22 757.08-35.86L757.08-35.86L757.08-35.86Q761.21-34.50 764.08-32.05L764.08-32.05L764.08-32.05Q766.95-29.61 768.54-26.27L768.54-26.27L768.54-26.27Q770.14-22.94 770.14-18.99L770.14-18.99L770.14-18.99Q770.14-17.20 769.91-15.51L769.91-15.51L769.91-15.51Q769.67-13.82 768.92-12.22L768.92-12.22L787.34-12.22L787.34-53.11L787.34-53.11Q788.38-53.30 790.54-53.63L790.54-53.63L790.54-53.63Q792.70-53.96 794.68-53.96L794.68-53.96L794.68-53.96Q796.74-53.96 798.30-53.67L798.30-53.67L798.30-53.67Q799.85-53.39 800.93-52.55L800.93-52.55L800.93-52.55Q802.01-51.70 802.57-50.24L802.57-50.24L802.57-50.24Q803.14-48.79 803.14-46.44L803.14-46.44L803.14-9.02L803.14-9.02Q803.14-4.79 800.74-2.40L800.74-2.40L800.74-2.40Q798.34 0 794.11 0L794.11 0ZM814.23-6.86L814.23-57.72L814.23-57.72Q814.23-61.10 812.58-63.03L812.58-63.03L812.58-63.03Q810.94-64.95 807.93-64.95L807.93-64.95L807.93-64.95Q804.92-64.95 803.28-63.12L803.28-63.12L803.28-63.12Q801.63-61.29 801.63-58.56L801.63-58.56L801.63-56.49L801.63-56.49Q800.50-55.93 799.33-55.60L799.33-55.60L799.33-55.60Q798.15-55.27 796.56-55.27L796.56-55.27L796.56-55.27Q792.14-55.27 789.98-57.53L789.98-57.53L789.98-57.53Q787.81-59.78 787.81-63.36L787.81-63.36L787.81-63.36Q787.81-66.74 789.60-69.51L789.60-69.51L789.60-69.51Q791.39-72.29 794.39-74.07L794.39-74.07L794.39-74.07Q797.12-75.67 800.64-76.56L800.64-76.56L800.64-76.56Q804.17-77.46 807.84-77.46L807.84-77.46L807.84-77.46Q812.35-77.46 816.39-76.33L816.39-76.33L816.39-76.33Q820.43-75.20 823.39-72.80L823.39-72.80L823.39-72.80Q826.35-70.41 828.09-66.79L828.09-66.79L828.09-66.79Q829.83-63.17 829.83-58.19L829.83-58.19L829.83-0.09L829.83-0.09Q828.89 0.09 826.82 0.42L826.82 0.42L826.82 0.42Q824.76 0.75 822.78 0.75L822.78 0.75L822.78 0.75Q818.55 0.75 816.39-0.66L816.39-0.66L816.39-0.66Q814.23-2.07 814.23-6.86L814.23-6.86ZM881.72-20.02L881.72-20.02L881.72-20.02Q881.72-15.23 880.12-11.33L880.12-11.33L880.12-11.33Q878.52-7.43 875.66-4.65L875.66-4.65L875.66-4.65Q872.79-1.88 868.79-0.42L868.79-0.42L868.79-0.42Q864.80 1.03 859.91 1.03L859.91 1.03L859.91 1.03Q855.02 1.03 851.03-0.42L851.03-0.42L851.03-0.42Q847.03-1.88 844.17-4.65L844.17-4.65L844.17-4.65Q841.30-7.43 839.70-11.33L839.70-11.33L839.70-11.33Q838.10-15.23 838.10-20.02L838.10-20.02L838.10-20.02Q838.10-24.82 839.70-28.72L839.70-28.72L839.70-28.72Q841.30-32.62 844.17-35.34L844.17-35.34L844.17-35.34Q847.03-38.07 851.03-39.53L851.03-39.53L851.03-39.53Q855.02-40.98 859.91-40.98L859.91-40.98L859.91-40.98Q864.80-40.98 868.79-39.53L868.79-39.53L868.79-39.53Q872.79-38.07 875.66-35.34L875.66-35.34L875.66-35.34Q878.52-32.62 880.12-28.72L880.12-28.72L880.12-28.72Q881.72-24.82 881.72-20.02ZM852.96-20.02L852.96-20.02L852.96-20.02Q852.96-15.79 854.88-13.35L854.88-13.35L854.88-13.35Q856.81-10.90 859.91-10.90L859.91-10.90L859.91-10.90Q863.01-10.90 864.89-13.35L864.89-13.35L864.89-13.35Q866.77-15.79 866.77-20.02L866.77-20.02L866.77-20.02Q866.77-24.25 864.89-26.65L864.89-26.65L864.89-26.65Q863.01-29.05 859.91-29.05L859.91-29.05L859.91-29.05Q856.81-29.05 854.88-26.65L854.88-26.65L854.88-26.65Q852.96-24.25 852.96-20.02ZM934.92-33.18L934.92-19.83L934.92-19.83Q934.92-14.76 933.28-10.90L933.28-10.90L933.28-10.90Q931.63-7.05 928.72-4.42L928.72-4.42L928.72-4.42Q925.81-1.79 921.72-0.42L921.72-0.42L921.72-0.42Q917.63 0.94 912.74 0.94L912.74 0.94L912.74 0.94Q907.10 0.94 902.49-0.75L902.49-0.75L902.49-0.75Q897.89-2.44 894.64-5.97L894.64-5.97L894.64-5.97Q891.40-9.49 889.62-14.76L889.62-14.76L889.62-14.76Q887.83-20.02 887.83-27.26L887.83-27.26L887.83-27.26Q887.83-33.56 889.99-39.39L889.99-39.39L889.99-39.39Q892.15-45.21 895.82-49.16L895.82-49.16L895.82-49.16Q897.89-51.42 900.33-52.78L900.33-52.78L900.33-52.78Q902.78-54.14 905.69-54.14L905.69-54.14L905.69-54.14Q909.07-54.14 911.28-51.89L911.28-51.89L911.28-51.89Q913.49-49.63 913.96-46.62L913.96-46.62L913.96-46.62Q909.36-43.24 906.63-38.26L906.63-38.26L906.63-38.26Q903.90-33.28 903.90-26.51L903.90-26.51L903.90-26.51Q903.90-19.65 906.25-15.74L906.25-15.74L906.25-15.74Q908.60-11.84 912.55-11.84L912.55-11.84L912.55-11.84Q915.65-11.84 917.39-14.05L917.39-14.05L917.39-14.05Q919.13-16.26 919.13-20.21L919.13-20.21L919.13-33.56L919.13-33.56Q919.13-38.63 920.78-42.49L920.78-42.49L920.78-42.49Q922.42-46.34 925.34-49.02L925.34-49.02L925.34-49.02Q928.25-51.70 932.34-53.06L932.34-53.06L932.34-53.06Q936.43-54.43 941.32-54.43L941.32-54.43L941.32-54.43Q946.96-54.43 951.56-52.73L951.56-52.73L951.56-52.73Q956.17-51.04 959.41-47.52L959.41-47.52L959.41-47.52Q962.65-43.99 964.44-38.68L964.44-38.68L964.44-38.68Q966.23-33.37 966.23-26.13L966.23-26.13L966.23-26.13Q966.23-19.83 964.11-13.96L964.11-13.96L964.11-13.96Q962.00-8.08 958.33-4.14L958.33-4.14L958.33-4.14Q956.26-1.88 953.82-0.52L953.82-0.52L953.82-0.52Q951.37 0.85 948.46 0.85L948.46 0.85L948.46 0.85Q945.08 0.85 942.82-1.41L942.82-1.41L942.82-1.41Q940.56-3.67 940.09-6.67L940.09-6.67L940.09-6.67Q944.70-10.06 947.43-15.09L947.43-15.09L947.43-15.09Q950.15-20.12 950.15-26.88L950.15-26.88L950.15-26.88Q950.15-33.75 947.80-37.69L947.80-37.69L947.80-37.69Q945.45-41.64 941.50-41.64L941.50-41.64L941.50-41.64Q938.40-41.64 936.66-39.39L936.66-39.39L936.66-39.39Q934.92-37.13 934.92-33.18L934.92-33.18ZM955.60-70.59L955.60-70.59L955.60-70.59Q959.46-70.59 962.14-72.00L962.14-72.00L962.14-72.00Q964.82-73.41 966.41-75.86L966.41-75.86L966.41-75.86Q968.95-75.29 970.93-73.51L970.93-73.51L970.93-73.51Q972.90-71.72 972.90-68.71L972.90-68.71L972.90-68.71Q972.90-64.01 968.29-61.05L968.29-61.05L968.29-61.05Q963.69-58.09 955.60-58.09L955.60-58.09L955.60-58.09Q947.52-58.09 942.91-61.05L942.91-61.05L942.91-61.05Q938.31-64.01 938.31-68.71L938.31-68.71L938.31-68.71Q938.31-71.72 940.28-73.51L940.28-73.51L940.28-73.51Q942.26-75.29 944.79-75.86L944.79-75.86L944.79-75.86Q946.39-73.41 949.07-72.00L949.07-72.00L949.07-72.00Q951.75-70.59 955.60-70.59Z" fill="#41b883"></path></g></g><style>text {
  font-size: 64px;
  font-family: Arial Black;
  dominant-baseline: central;
  text-anchor: middle;
}</style></svg>